<?xml version="1.0" encoding="UTF-8" ?>
<!DOCTYPE svg PUBLIC "-//W3C//DTD SVG 1.1//EN" "http://www.w3.org/Graphics/SVG/1.1/DTD/svg11.dtd">
<svg width="226pt" height="100pt" viewBox="0 0 226 100" version="1.1" xmlns="http://www.w3.org/2000/svg">
<path fill="#ffffff" d=" M 0.00 0.00 L 226.00 0.00 L 226.00 100.00 L 0.00 100.00 L 0.00 0.00 Z" />
<path fill="#00d9ff" d=" M 16.49 12.29 C 17.12 7.36 21.48 2.55 26.77 3.34 C 34.32 4.31 39.79 10.33 44.69 15.63 C 51.19 13.13 58.35 11.12 65.32 12.77 C 69.62 13.92 72.43 18.43 71.68 22.82 C 70.51 31.07 65.03 37.97 59.30 43.69 C 61.58 52.12 62.26 60.92 65.25 69.17 C 68.25 58.51 71.24 47.84 74.35 37.21 C 75.94 37.25 77.52 37.31 79.11 37.40 C 74.93 51.60 70.74 65.80 66.58 80.01 C 65.88 80.00 64.48 79.99 63.78 79.99 C 62.86 76.86 61.93 73.74 61.09 70.60 C 59.54 74.06 57.38 78.41 53.09 78.74 C 48.94 79.59 45.07 77.37 41.99 74.84 C 38.34 71.90 35.30 68.27 32.78 64.34 C 25.65 67.27 17.90 71.20 10.02 68.95 C 5.23 67.41 3.57 61.78 4.47 57.26 C 6.11 48.02 12.39 40.68 18.20 33.68 C 16.41 26.72 15.72 19.44 16.49 12.29 Z" />
<path fill="#ffffff" d=" M 22.52 6.64 C 25.07 5.89 27.93 6.23 30.13 7.75 C 34.19 10.29 37.70 13.77 40.18 17.87 C 32.06 21.80 24.81 27.40 18.50 33.81 C 17.12 27.94 16.90 21.83 17.52 15.84 C 17.93 12.33 19.34 8.52 22.52 6.64 Z" />
<path fill="#ffffff" d=" M 48.09 19.01 C 53.20 17.16 58.51 14.94 64.06 15.60 C 67.81 16.12 70.35 19.93 69.65 23.61 C 68.64 31.18 64.51 38.14 59.06 43.39 C 56.65 35.49 53.27 27.79 48.48 21.03 C 48.38 20.53 48.18 19.51 48.09 19.01 Z" />
<path fill="#ffffff" d=" M 14.58 45.52 C 22.34 35.70 32.46 28.07 43.07 21.58 C 47.01 27.75 50.68 34.23 52.43 41.41 C 54.56 49.84 58.56 58.08 57.79 66.97 C 57.73 70.51 56.63 74.65 53.19 76.33 C 50.81 77.00 48.24 76.64 46.04 75.56 C 40.85 72.89 36.39 68.89 33.09 64.08 C 35.37 62.78 37.67 61.52 39.91 60.18 C 37.48 61.33 35.09 62.57 32.73 63.88 C 30.96 61.44 29.27 58.94 27.65 56.40 C 29.15 58.99 30.67 61.56 32.19 64.14 C 26.12 66.56 19.57 68.53 12.97 67.53 C 9.91 67.13 7.22 64.32 7.41 61.15 C 7.56 55.22 11.20 50.13 14.58 45.52 Z" />
<path fill="#00d9ff" d=" M 35.23 28.95 C 42.51 26.93 51.24 32.87 50.84 40.73 C 51.50 47.36 45.78 53.89 39.06 53.82 C 33.04 54.63 27.18 50.10 25.89 44.27 C 24.10 37.72 28.54 30.34 35.23 28.95 Z" />
<path fill="#00d9ff" d=" M 112.56 42.15 C 113.97 41.93 115.37 41.73 116.79 41.54 C 116.80 44.12 116.78 46.70 116.79 49.27 C 119.35 49.30 121.92 49.26 124.49 49.31 C 124.53 50.70 124.55 52.09 124.55 53.48 C 121.96 53.55 119.37 53.53 116.78 53.54 C 116.83 59.06 116.72 64.58 116.79 70.09 C 116.90 71.72 116.78 73.68 118.22 74.81 C 119.95 76.32 122.42 75.88 124.53 76.15 C 124.53 77.45 124.53 78.75 124.50 80.06 C 119.79 80.72 113.67 79.32 112.74 73.85 C 112.32 67.10 112.69 60.33 112.60 53.57 C 110.76 53.55 108.92 53.51 107.09 53.48 C 107.08 52.09 107.09 50.71 107.12 49.32 C 108.94 49.30 110.77 49.28 112.60 49.27 C 112.58 46.89 112.57 44.52 112.56 42.15 Z" />
<path fill="#00d9ff" d=" M 88.26 49.21 C 92.55 48.33 97.98 48.16 101.01 51.92 C 104.02 55.21 102.65 59.96 103.00 63.98 C 102.81 68.96 104.37 75.31 99.67 78.76 C 94.75 82.24 86.16 81.59 83.19 75.80 C 81.30 70.44 82.72 64.52 82.27 58.93 C 81.79 54.79 84.26 50.54 88.26 49.21 Z" />
<path fill="#00d9ff" d=" M 136.27 49.21 C 140.55 48.33 145.97 48.16 149.00 51.91 C 151.81 54.91 150.87 59.27 150.99 62.99 C 150.84 66.84 151.37 70.73 150.67 74.54 C 147.85 83.33 132.44 82.96 130.49 73.78 C 130.03 68.54 130.37 63.25 130.29 57.99 C 130.02 54.14 132.66 50.44 136.27 49.21 Z" />
<path fill="#00d9ff" d=" M 157.67 49.50 C 159.37 48.32 160.07 50.66 161.10 51.59 C 163.36 49.86 165.99 48.39 168.95 48.75 C 173.58 48.41 178.18 52.24 178.20 56.98 C 178.32 64.65 178.18 72.32 178.23 80.00 C 176.78 80.00 175.34 79.99 173.89 79.97 C 173.78 72.37 174.02 64.76 173.81 57.16 C 173.11 51.36 162.93 51.25 162.05 57.00 C 161.80 64.63 161.97 72.27 162.04 79.90 C 160.55 79.96 159.06 80.01 157.58 80.03 C 157.65 69.85 157.43 59.67 157.67 49.50 Z" />
<path fill="#ffffff" d=" M 89.53 53.38 C 92.62 52.15 97.37 52.72 98.42 56.41 C 98.78 61.59 98.58 66.80 98.53 71.99 C 98.31 77.74 88.38 78.25 86.92 72.98 C 86.59 67.97 86.82 62.94 86.79 57.92 C 86.62 56.00 87.78 54.15 89.53 53.38 Z" />
<path fill="#ffffff" d=" M 137.51 53.39 C 140.60 52.14 145.38 52.72 146.42 56.43 C 146.77 61.57 146.58 66.76 146.53 71.92 C 146.39 77.72 136.42 78.28 134.93 73.00 C 134.59 67.99 134.82 62.95 134.79 57.93 C 134.61 56.02 135.76 54.16 137.51 53.39 Z" />
</svg>
